<svg width="24" height="24" xmlns="http://www.w3.org/2000/svg"><g fill-rule="nonzero" fill="none"><circle fill="#C0DAFA" cx="12" cy="12" r="11"/><path d="M19.592 19.96A10.963 10.963 0 0 1 12 23a10.963 10.963 0 0 1-7.592-3.04 7.353 7.353 0 0 1 4.579-3.99l.231-.142a1.36 1.36 0 0 0 .358-1.994 3.658 3.658 0 0 1-1.243-2.75v-.079a1.376 1.376 0 0 1-.916-1.297V9.25c0-.506.41-.917.916-.917a3.667 3.667 0 0 1 7.334 0c.506 0 .916.41.916.917v.458c0 .599-.382 1.108-.916 1.297v.078c0 1.11-.493 2.104-1.272 2.777a1.341 1.341 0 0 0 .362 1.972l.205.124a7.352 7.352 0 0 1 4.63 4.004z" fill="#F2F8FE"/></g></svg>